<?xml version="1.0" encoding="UTF-8"?>
<svg xmlns="http://www.w3.org/2000/svg" xmlns:xlink="http://www.w3.org/1999/xlink" width="24px" height="24px" viewBox="0 0 24 24" version="1.1">
<g id="surface1">
<path style=" stroke:none;fill-rule:nonzero;fill:rgb(50.196081%,50.196081%,50.196081%);fill-opacity:1;" d="M 9 1.792969 C 8.640625 2.570312 8.359375 3.359375 8.199219 3.84375 C 7.679688 3.84375 6.820312 3.863281 6 3.96875 C 6.628906 4.554688 7.292969 5.066406 7.703125 5.367188 C 7.542969 5.859375 7.296875 6.683594 7.144531 7.496094 C 7.894531 7.082031 8.585938 6.609375 8.996094 6.308594 C 9.589844 6.742188 10.210938 7.140625 10.851562 7.5 L 10.851562 7.496094 C 10.707031 6.777344 10.519531 6.066406 10.292969 5.371094 C 10.890625 4.941406 11.460938 4.472656 12 3.976562 L 12 3.972656 C 11.269531 3.890625 10.535156 3.847656 9.800781 3.847656 C 9.578125 3.144531 9.308594 2.460938 9 1.789062 Z M 3.75 7.71875 C 3.519531 8.21875 3.320312 8.734375 3.148438 9.257812 C 2.597656 9.253906 2.046875 9.285156 1.5 9.351562 C 1.90625 9.726562 2.332031 10.074219 2.777344 10.398438 C 2.65625 10.769531 2.472656 11.386719 2.359375 11.996094 C 2.835938 11.726562 3.300781 11.429688 3.746094 11.105469 C 4.191406 11.433594 4.65625 11.730469 5.140625 12 C 5.015625 11.367188 4.839844 10.765625 4.71875 10.402344 C 5.035156 10.171875 5.550781 9.78125 6 9.355469 C 5.453125 9.292969 4.902344 9.261719 4.351562 9.257812 C 4.183594 8.734375 3.984375 8.21875 3.75 7.71875 Z M 15.445312 3.367188 C 17.191406 5.503906 17.804688 8.347656 17.09375 11.011719 C 15.867188 15.59375 11.15625 18.3125 6.570312 17.085938 C 5.402344 16.769531 4.3125 16.207031 3.375 15.4375 C 4.316406 18.722656 6.914062 21.277344 10.214844 22.164062 C 15.417969 23.5625 20.773438 20.472656 22.167969 15.265625 C 23.539062 10.132812 20.550781 4.84375 15.445312 3.367188 Z M 18.695312 7.054688 C 20.292969 8.703125 21.121094 10.949219 20.988281 13.242188 C 20.949219 13.796875 20.859375 14.34375 20.714844 14.878906 C 19.96875 17.707031 17.773438 19.925781 14.953125 20.707031 C 12.132812 21.488281 9.109375 20.710938 7.011719 18.671875 C 12.109375 19.585938 17.179688 16.492188 18.546875 11.402344 L 18.546875 11.398438 C 18.910156 9.976562 18.964844 8.496094 18.695312 7.054688 Z M 18.695312 7.054688 "/>
</g>
</svg>
