<?xml version="1.0" encoding="UTF-8"?>
<svg xmlns="http://www.w3.org/2000/svg" xmlns:xlink="http://www.w3.org/1999/xlink" width="24px" height="24px" viewBox="0 0 24 24" version="1.1">
<g id="surface1">
<path style=" stroke:none;fill-rule:nonzero;fill:rgb(50.196081%,50.196081%,50.196081%);fill-opacity:1;" d="M 12.960938 2.503906 C 9.722656 2.503906 6.972656 4.5 5.65625 7.351562 L 5.566406 7.546875 L 5.359375 7.558594 C 2.367188 7.773438 0 10.363281 0 13.511719 C 0 16.800781 2.574219 19.5 5.757812 19.5 L 19.683594 19.5 C 22.070312 19.5 24 17.476562 24 15.019531 C 24.007812 13.230469 22.9375 11.613281 21.292969 10.914062 L 21.089844 10.828125 L 21.074219 10.605469 C 20.871094 6.117188 17.34375 2.503906 12.964844 2.503906 Z M 12.960938 4.003906 C 16.511719 4.003906 19.398438 6.929688 19.566406 10.671875 L 19.566406 10.6875 L 19.644531 11.851562 L 20.699219 12.296875 C 21.796875 12.753906 22.503906 13.828125 22.492188 15.019531 C 22.507812 16.6875 21.222656 18 19.6875 18 L 5.757812 18 C 3.421875 18 1.5 16.019531 1.5 13.511719 C 1.5 11.113281 3.277344 9.214844 5.46875 9.050781 L 6.550781 8.976562 L 7.015625 7.984375 L 7.015625 7.976562 C 8.109375 5.605469 10.335938 4.003906 12.957031 4.003906 Z M 12.960938 4.003906 "/>
</g>
</svg>
