<?xml version="1.0" encoding="UTF-8"?>
<svg xmlns="http://www.w3.org/2000/svg" xmlns:xlink="http://www.w3.org/1999/xlink" width="24px" height="24px" viewBox="0 0 24 24" version="1.1">
<g id="surface1">
<path style=" stroke:none;fill-rule:nonzero;fill:rgb(50.196081%,50.196081%,50.196081%);fill-opacity:1;" d="M 12.960938 1 C 9.726562 1.003906 6.972656 3 5.660156 5.847656 L 5.570312 6.042969 L 5.359375 6.058594 C 2.371094 6.273438 0.00390625 8.863281 0.00390625 12.011719 C 0.00390625 13.101562 0.304688 14.113281 0.800781 15 L 2.601562 15 C 1.890625 14.164062 1.5 13.105469 1.503906 12.011719 C 1.503906 9.617188 3.277344 7.710938 5.46875 7.550781 L 6.550781 7.476562 L 7.019531 6.480469 L 7.019531 6.476562 C 8.109375 4.105469 10.335938 2.503906 12.957031 2.5 C 16.511719 2.503906 19.394531 5.429688 19.566406 9.171875 L 19.566406 9.1875 L 19.640625 10.351562 L 20.695312 10.792969 C 21.792969 11.25 22.5 12.328125 22.488281 13.515625 C 22.503906 15.1875 21.21875 16.496094 19.683594 16.496094 L 0 16.496094 L 0 17.996094 L 19.679688 17.996094 C 22.066406 17.996094 23.996094 15.972656 23.996094 13.515625 C 24.003906 11.726562 22.933594 10.109375 21.289062 9.414062 L 21.082031 9.328125 L 21.066406 9.105469 C 20.867188 4.613281 17.339844 1.003906 12.960938 1 Z M 0.00390625 19.496094 L 0.00390625 20.996094 L 24 20.996094 L 24 19.496094 Z M 0.00390625 22.496094 L 0.00390625 23.996094 L 24 23.996094 L 24 22.496094 Z M 0.00390625 22.496094 "/>
</g>
</svg>
