<?xml version="1.0" encoding="UTF-8"?>
<svg xmlns="http://www.w3.org/2000/svg" xmlns:xlink="http://www.w3.org/1999/xlink" width="24px" height="24px" viewBox="0 0 24 24" version="1.1">
<g id="surface1">
<path style=" stroke:none;fill-rule:nonzero;fill:rgb(50.196081%,50.196081%,50.196081%);fill-opacity:1;" d="M 12.839844 0.125 C 10.007812 0.128906 7.601562 1.875 6.453125 4.367188 L 6.367188 4.539062 L 6.1875 4.550781 C 3.570312 4.742188 1.5 7.007812 1.5 9.761719 C 1.5 12.640625 3.75 15 6.535156 15 L 18.722656 15 C 20.8125 15 22.5 13.226562 22.5 11.078125 C 22.5 9.445312 21.519531 8.078125 20.132812 7.488281 L 19.953125 7.414062 L 19.9375 7.21875 C 19.757812 3.289062 16.671875 0.128906 12.84375 0.125 Z M 12.839844 1.625 C 15.847656 1.628906 18.292969 4.105469 18.4375 7.285156 L 18.4375 7.308594 L 18.527344 8.429688 L 19.542969 8.867188 L 19.542969 8.871094 C 20.398438 9.234375 21 10.046875 21 11.074219 C 21 12.441406 19.964844 13.5 18.722656 13.5 L 6.539062 13.5 C 4.601562 13.5 3 11.859375 3 9.761719 C 3 7.761719 4.480469 6.179688 6.296875 6.046875 L 7.355469 5.972656 L 7.8125 5 L 7.8125 4.996094 C 8.738281 2.984375 10.621094 1.628906 12.839844 1.625 Z M 12.839844 1.625 "/>
<path style=" stroke:none;fill-rule:nonzero;fill:rgb(50.196081%,50.196081%,50.196081%);fill-opacity:1;" d="M 12.003906 24 C 11.28125 24 10.605469 23.652344 10.179688 23.066406 C 9.757812 22.480469 9.640625 21.726562 9.867188 21.042969 C 9.867188 21.019531 9.882812 20.996094 9.890625 20.972656 C 9.945312 20.785156 10.785156 18.027344 12.007812 15.554688 C 12.84375 17.332031 13.558594 19.164062 14.136719 21.042969 C 14.363281 21.726562 14.246094 22.480469 13.824219 23.066406 C 13.402344 23.652344 12.722656 24 12 24 Z M 18 21 C 17.519531 21 17.066406 20.769531 16.785156 20.378906 C 16.5 19.988281 16.421875 19.488281 16.574219 19.027344 C 16.574219 19.015625 16.589844 19 16.589844 18.984375 C 16.628906 18.855469 17.191406 17.019531 18 15.367188 L 18 15.371094 C 18.871094 17.171875 19.421875 19.027344 19.421875 19.027344 C 19.574219 19.484375 19.496094 19.988281 19.214844 20.378906 C 18.933594 20.769531 18.480469 21 18 21 Z M 6 21 C 5.519531 21 5.066406 20.769531 4.785156 20.378906 C 4.5 19.988281 4.421875 19.488281 4.574219 19.027344 C 4.574219 19.015625 4.589844 19 4.589844 18.984375 C 4.628906 18.855469 5.191406 17.019531 6 15.367188 L 6 15.371094 C 6.5625 16.554688 7.035156 17.777344 7.421875 19.027344 C 7.574219 19.488281 7.496094 19.988281 7.214844 20.378906 C 6.933594 20.769531 6.480469 21 6 21 Z M 6 21 "/>
</g>
</svg>
