<?xml version="1.0" encoding="UTF-8"?>
<svg xmlns="http://www.w3.org/2000/svg" xmlns:xlink="http://www.w3.org/1999/xlink" width="24px" height="24px" viewBox="0 0 24 24" version="1.1">
<g id="surface1">
<path style=" stroke:none;fill-rule:nonzero;fill:rgb(50.196081%,50.196081%,50.196081%);fill-opacity:1;" d="M 12.445312 0.367188 C 14.191406 2.503906 14.804688 5.347656 14.09375 8.011719 C 12.867188 12.597656 8.15625 15.316406 3.570312 14.089844 C 2.402344 13.769531 1.308594 13.207031 0.371094 12.441406 C 1.316406 15.722656 3.910156 18.277344 7.210938 19.164062 C 7.34375 19.203125 7.476562 19.222656 7.609375 19.25 C 7.710938 18.746094 7.890625 18.269531 8.132812 17.832031 C 7.957031 17.792969 7.777344 17.765625 7.601562 17.71875 C 6.25 17.351562 5.015625 16.648438 4.011719 15.671875 C 9.109375 16.585938 14.179688 13.492188 15.546875 8.402344 L 15.546875 8.398438 C 15.914062 6.980469 15.964844 5.496094 15.695312 4.054688 C 17.292969 5.707031 18.121094 7.953125 17.988281 10.246094 C 17.949219 10.796875 17.859375 11.34375 17.714844 11.878906 C 17.703125 11.933594 17.683594 11.984375 17.667969 12.039062 C 18.179688 12.070312 18.675781 12.160156 19.152344 12.308594 C 19.152344 12.292969 19.167969 12.28125 19.167969 12.265625 C 20.539062 7.132812 17.550781 1.84375 12.445312 0.367188 Z M 17.25 13.5 C 15.222656 13.503906 13.375 14.675781 12.511719 16.507812 C 10.496094 16.648438 8.957031 18.355469 9.019531 20.371094 C 9.085938 22.386719 10.734375 23.988281 12.75 24 L 21 24 C 22.359375 23.996094 23.542969 23.082031 23.890625 21.769531 C 24.242188 20.457031 23.664062 19.074219 22.488281 18.398438 C 22.304688 15.640625 20.011719 13.5 17.25 13.5 Z M 17.25 15 C 19.226562 14.992188 20.867188 16.527344 20.988281 18.496094 L 21.042969 19.300781 L 21.742188 19.703125 C 22.207031 19.96875 22.496094 20.464844 22.496094 21.003906 C 22.503906 21.402344 22.347656 21.785156 22.0625 22.070312 C 21.78125 22.351562 21.394531 22.507812 20.996094 22.5 L 12.746094 22.5 C 11.488281 22.5 10.496094 21.511719 10.496094 20.25 C 10.496094 19.050781 11.40625 18.082031 12.601562 18.007812 L 13.484375 17.949219 L 13.863281 17.152344 C 14.480469 15.839844 15.796875 15.003906 17.246094 15 Z M 17.25 15 "/>
</g>
</svg>
