<?xml version="1.0" encoding="UTF-8"?>
<svg xmlns="http://www.w3.org/2000/svg" xmlns:xlink="http://www.w3.org/1999/xlink" width="24px" height="24px" viewBox="0 0 24 24" version="1.1">
<g id="surface1">
<path style=" stroke:none;fill-rule:nonzero;fill:rgb(50.196081%,50.196081%,50.196081%);fill-opacity:1;" d="M 14.097656 10.378906 C 12.074219 10.378906 10.359375 11.625 9.535156 13.40625 L 9.476562 13.527344 L 9.347656 13.539062 C 7.480469 13.675781 6 15.289062 6 17.257812 C 6 19.3125 7.609375 21 9.601562 21 L 18.300781 21 C 19.792969 21 21 19.734375 21 18.199219 C 21.003906 17.082031 20.335938 16.070312 19.304688 15.632812 L 19.175781 15.582031 L 19.160156 15.441406 C 19.035156 12.636719 16.835938 10.378906 14.101562 10.378906 Z M 14.097656 11.878906 C 16.007812 11.878906 17.574219 13.453125 17.664062 15.511719 L 17.664062 15.554688 L 17.78125 16.613281 L 18.71875 17.015625 C 19.175781 17.210938 19.5 17.636719 19.5 18.199219 C 19.5 18.949219 18.945312 19.5 18.300781 19.5 L 9.597656 19.5 C 8.457031 19.5 7.5 18.53125 7.5 17.257812 C 7.5 16.042969 8.386719 15.109375 9.453125 15.03125 L 10.460938 14.960938 L 10.894531 14.039062 L 10.894531 14.03125 C 11.496094 12.734375 12.683594 11.878906 14.089844 11.878906 Z M 14.097656 11.878906 "/>
<path style=" stroke:none;fill-rule:nonzero;fill:rgb(50.196081%,50.196081%,50.196081%);fill-opacity:1;" d="M 14.25 1.5 C 12.214844 1.503906 10.363281 2.683594 9.5 4.527344 C 6.679688 4.257812 4.15625 6.277344 3.796875 9.085938 C 2.324219 9.449219 1.355469 10.851562 1.535156 12.355469 C 1.714844 13.859375 2.988281 14.992188 4.5 15 L 4.90625 15 C 5.15625 14.441406 5.519531 13.933594 5.96875 13.5 L 4.496094 13.5 C 3.652344 13.5 2.996094 12.847656 2.996094 12 C 2.992188 11.304688 3.46875 10.703125 4.144531 10.546875 L 5.152344 10.300781 L 5.28125 9.277344 C 5.53125 7.265625 7.332031 5.820312 9.347656 6.019531 L 10.40625 6.125 L 10.855469 5.160156 C 11.472656 3.84375 12.792969 3 14.246094 3 C 15.242188 2.996094 16.199219 3.386719 16.902344 4.089844 C 17.605469 4.796875 18 5.75 17.992188 6.746094 L 17.992188 6.75 C 17.992188 6.941406 17.976562 7.128906 17.945312 7.320312 L 17.703125 8.773438 L 19.152344 9.042969 C 20.222656 9.230469 21 10.164062 20.996094 11.25 C 20.996094 12.511719 20.003906 13.5 18.746094 13.5 L 18 13.5 L 18 15 L 18.75 15 C 20.683594 14.992188 22.292969 13.515625 22.46875 11.589844 C 22.644531 9.664062 21.328125 7.921875 19.429688 7.566406 C 19.472656 7.292969 19.496094 7.023438 19.5 6.75 C 19.5 3.851562 17.148438 1.5 14.25 1.5 Z M 14.25 1.5 "/>
</g>
</svg>
