<?xml version="1.0" encoding="UTF-8"?>
<svg xmlns="http://www.w3.org/2000/svg" xmlns:xlink="http://www.w3.org/1999/xlink" width="24px" height="24px" viewBox="0 0 24 24" version="1.1">
<g id="surface1">
<path style=" stroke:none;fill-rule:nonzero;fill:rgb(50.196081%,50.196081%,50.196081%);fill-opacity:1;" d="M 12.007812 21 C 10.804688 21 9.671875 20.421875 8.96875 19.445312 C 8.261719 18.46875 8.066406 17.214844 8.445312 16.070312 C 8.445312 16.035156 8.46875 15.996094 8.480469 15.957031 C 8.574219 15.640625 9.976562 11.042969 12.011719 6.921875 L 12.011719 6.929688 C 14.183594 11.429688 15.5625 16.070312 15.5625 16.070312 C 15.941406 17.214844 15.746094 18.46875 15.039062 19.445312 C 14.335938 20.421875 13.203125 21 12 21 Z M 20.25 13.5 C 19.527344 13.5 18.851562 13.152344 18.425781 12.566406 C 18.003906 11.984375 17.886719 11.230469 18.113281 10.546875 C 18.113281 10.519531 18.136719 10.5 18.136719 10.476562 C 18.195312 10.285156 19.035156 7.527344 20.253906 5.054688 L 20.253906 5.058594 C 21.554688 7.757812 22.382812 10.542969 22.382812 10.542969 C 22.609375 11.230469 22.492188 11.980469 22.070312 12.566406 C 21.648438 13.152344 20.96875 13.5 20.246094 13.5 Z M 3.75 13.5 C 3.027344 13.5 2.351562 13.152344 1.925781 12.566406 C 1.503906 11.984375 1.386719 11.230469 1.613281 10.546875 C 1.613281 10.519531 1.636719 10.496094 1.636719 10.476562 C 1.695312 10.285156 2.535156 7.527344 3.753906 5.054688 L 3.753906 5.058594 C 5.054688 7.757812 5.882812 10.542969 5.882812 10.542969 C 6.109375 11.230469 5.992188 11.980469 5.570312 12.566406 C 5.148438 13.152344 4.46875 13.5 3.746094 13.5 Z M 3.75 13.5 "/>
</g>
</svg>
