<?xml version="1.0" encoding="UTF-8"?>
<svg xmlns="http://www.w3.org/2000/svg" xmlns:xlink="http://www.w3.org/1999/xlink" width="24px" height="24px" viewBox="0 0 24 24" version="1.1">
<g id="surface1">
<path style=" stroke:none;fill-rule:nonzero;fill:rgb(50.196081%,50.196081%,50.196081%);fill-opacity:1;" d="M 12.839844 0.125 C 10.007812 0.128906 7.601562 1.875 6.453125 4.367188 L 6.367188 4.539062 L 6.1875 4.550781 C 3.570312 4.742188 1.5 7.007812 1.5 9.761719 C 1.5 12.640625 3.75 15 6.535156 15 L 18.722656 15 C 20.8125 15 22.5 13.226562 22.5 11.078125 C 22.5 9.445312 21.519531 8.078125 20.132812 7.488281 L 19.953125 7.414062 L 19.9375 7.21875 C 19.757812 3.289062 16.671875 0.128906 12.84375 0.125 Z M 12.839844 1.625 C 15.847656 1.628906 18.292969 4.105469 18.4375 7.285156 L 18.4375 7.308594 L 18.527344 8.429688 L 19.542969 8.867188 L 19.542969 8.871094 C 20.398438 9.234375 21 10.046875 21 11.074219 C 21 12.441406 19.964844 13.5 18.722656 13.5 L 6.539062 13.5 C 4.601562 13.5 3 11.859375 3 9.761719 C 3 7.761719 4.480469 6.179688 6.296875 6.046875 L 7.355469 5.972656 L 7.8125 5 L 7.8125 4.996094 C 8.738281 2.984375 10.621094 1.628906 12.839844 1.625 Z M 12.839844 1.625 "/>
<path style=" stroke:none;fill-rule:nonzero;fill:rgb(50.196081%,50.196081%,50.196081%);fill-opacity:1;" d="M 10.003906 13.5 L 9.613281 18.75 L 12.035156 18.75 L 11.464844 24 L 15.613281 16.5 L 12.75 16.5 L 13.234375 13.5 Z M 10.003906 13.5 "/>
</g>
</svg>
