<?xml version="1.0" encoding="UTF-8"?>
<svg xmlns="http://www.w3.org/2000/svg" xmlns:xlink="http://www.w3.org/1999/xlink" width="24px" height="24px" viewBox="0 0 24 24" version="1.1">
<g id="surface1">
<path style=" stroke:none;fill-rule:nonzero;fill:rgb(50.196081%,50.196081%,50.196081%);fill-opacity:1;" d="M 11.25 0 L 11.25 3 L 12.75 3 L 12.75 0 Z M 6.652344 1.234375 L 5.347656 1.984375 L 6.851562 4.582031 L 8.152344 3.832031 Z M 17.347656 1.234375 L 15.847656 3.832031 L 17.152344 4.582031 L 18.652344 1.984375 Z M 12 4.5 C 7.859375 4.5 4.5 7.859375 4.5 12 C 4.5 16.140625 7.859375 19.5 12 19.5 C 16.140625 19.5 19.5 16.140625 19.5 12 C 19.5 7.859375 16.140625 4.5 12 4.5 Z M 1.984375 5.347656 L 1.234375 6.652344 L 3.832031 8.152344 L 4.582031 6.847656 Z M 22.015625 5.347656 L 19.417969 6.847656 L 20.167969 8.152344 L 22.765625 6.652344 Z M 12 6 C 15.3125 6 18 8.6875 18 12 C 18 15.3125 15.3125 18 12 18 C 8.6875 18 6 15.3125 6 12 C 6 8.6875 8.6875 6 12 6 Z M 0 11.25 L 0 12.75 L 3 12.75 L 3 11.25 Z M 21 11.25 L 21 12.75 L 24 12.75 L 24 11.25 Z M 3.832031 15.847656 L 1.234375 17.347656 L 1.984375 18.652344 L 4.582031 17.148438 Z M 20.167969 15.847656 L 19.417969 17.152344 L 22.015625 18.652344 L 22.765625 17.347656 Z M 6.847656 19.417969 L 5.347656 22.015625 L 6.652344 22.765625 L 8.152344 20.167969 Z M 17.152344 19.417969 L 15.847656 20.167969 L 17.347656 22.765625 L 18.652344 22.015625 Z M 11.25 21 L 11.25 24 L 12.75 24 L 12.75 21 Z M 11.25 21 "/>
</g>
</svg>
