<?xml version="1.0" encoding="UTF-8"?>
<svg xmlns="http://www.w3.org/2000/svg" xmlns:xlink="http://www.w3.org/1999/xlink" width="24px" height="24px" viewBox="0 0 24 24" version="1.1">
<g id="surface1">
<path style=" stroke:none;fill-rule:nonzero;fill:rgb(50.196081%,50.196081%,50.196081%);fill-opacity:1;" d="M 12.960938 1 C 9.722656 1.003906 6.972656 3 5.65625 5.851562 L 5.566406 6.042969 L 5.359375 6.058594 C 2.367188 6.277344 0 8.863281 0 12.011719 C 0 15.300781 2.574219 18 5.757812 18 L 9 18 L 9 16.5 L 5.757812 16.5 C 3.421875 16.5 1.5 14.519531 1.5 12.011719 C 1.5 9.617188 3.277344 7.710938 5.464844 7.550781 L 6.550781 7.476562 L 7.015625 6.484375 L 7.015625 6.476562 C 8.109375 4.105469 10.335938 2.503906 12.957031 2.5 C 16.507812 2.503906 19.394531 5.429688 19.5625 9.171875 L 19.5625 9.1875 L 19.636719 10.351562 L 20.695312 10.792969 C 21.789062 11.253906 22.5 12.328125 22.488281 13.515625 C 22.5 15.1875 21.21875 16.5 19.679688 16.5 L 14.996094 16.5 L 14.996094 18 L 19.679688 18 C 22.066406 18 23.996094 15.972656 23.996094 13.515625 C 24.003906 11.730469 22.933594 10.113281 21.289062 9.414062 L 21.085938 9.328125 L 21.070312 9.105469 C 20.863281 4.613281 17.339844 1.003906 12.960938 1 Z M 12.960938 1 "/>
<path style=" stroke:none;fill-rule:nonzero;fill:rgb(85.490197%,8.627451%,21.176471%);fill-opacity:1;" d="M 10.9375 9 L 10.9375 12.992188 C 10.9375 14.179688 10.980469 15.265625 11.066406 16.242188 C 11.148438 17.207031 11.257812 18.167969 11.382812 19.132812 L 12.613281 19.132812 C 12.742188 18.167969 12.851562 17.207031 12.933594 16.242188 C 13.019531 15.265625 13.0625 14.179688 13.0625 12.992188 L 13.0625 9 Z M 12 21.152344 C 11.558594 21.152344 11.214844 21.292969 10.960938 21.574219 C 10.707031 21.847656 10.570312 22.207031 10.574219 22.574219 C 10.574219 22.957031 10.703125 23.289062 10.960938 23.574219 C 11.214844 23.859375 11.558594 24 12 24 C 12.4375 24 12.785156 23.859375 13.039062 23.574219 C 13.289062 23.300781 13.425781 22.945312 13.421875 22.574219 C 13.425781 22.207031 13.289062 21.847656 13.039062 21.574219 C 12.785156 21.292969 12.4375 21.152344 12 21.152344 Z M 12 21.152344 "/>
</g>
</svg>
