<?xml version="1.0" encoding="UTF-8"?>
<svg xmlns="http://www.w3.org/2000/svg" xmlns:xlink="http://www.w3.org/1999/xlink" width="24px" height="24px" viewBox="0 0 24 24" version="1.1">
<g id="surface1">
<path style=" stroke:none;fill-rule:nonzero;fill:rgb(50.196081%,50.196081%,50.196081%);fill-opacity:1;" d="M 20.101562 6.015625 C 19.046875 6.054688 18.058594 6.539062 17.378906 7.347656 C 16.691406 8.117188 17.890625 9.125 18.527344 8.3125 C 19.195312 7.511719 20.328125 7.277344 21.257812 7.75 C 22.191406 8.21875 22.675781 9.257812 22.433594 10.277344 C 22.195312 11.292969 21.289062 12.007812 20.25 12.007812 L 2.25 12.007812 C 1.015625 12.007812 0 13.023438 0 14.253906 C 0.00390625 15.5 1.015625 16.507812 2.261719 16.507812 L 15.769531 16.507812 C 16.121094 16.507812 16.417969 16.738281 16.5 17.082031 C 16.582031 17.417969 16.417969 17.769531 16.105469 17.921875 C 15.796875 18.082031 15.417969 18.003906 15.195312 17.734375 C 14.558594 16.921875 13.355469 17.929688 14.046875 18.699219 C 14.71875 19.5 15.847656 19.734375 16.78125 19.265625 C 17.707031 18.800781 18.195312 17.746094 17.957031 16.734375 C 17.730469 15.820312 16.953125 15.148438 16.019531 15.050781 L 2.25 15.007812 L 2.25 15.003906 C 2.050781 15.007812 1.859375 14.929688 1.71875 14.789062 C 1.578125 14.648438 1.5 14.453125 1.503906 14.253906 C 1.503906 13.832031 1.828125 13.503906 2.25 13.503906 L 20.25 13.503906 C 22.078125 13.425781 23.507812 12.253906 23.898438 10.621094 C 24.296875 8.933594 23.484375 7.191406 21.9375 6.410156 C 21.371094 6.125 20.738281 5.988281 20.105469 6.015625 Z M 13.046875 6.027344 C 12.289062 5.929688 11.535156 6.226562 11.042969 6.8125 C 10.351562 7.582031 11.550781 8.589844 12.191406 7.777344 C 12.414062 7.507812 12.789062 7.433594 13.101562 7.589844 C 13.414062 7.746094 13.574219 8.089844 13.492188 8.433594 C 13.417969 8.769531 13.113281 9.011719 12.765625 9.007812 L 5.253906 9.007812 C 4.242188 8.992188 4.242188 10.523438 5.253906 10.507812 L 12.765625 10.507812 C 12.847656 10.507812 12.929688 10.496094 13.007812 10.46875 C 13.945312 10.371094 14.722656 9.695312 14.949219 8.777344 C 15.09375 8.15625 14.972656 7.503906 14.609375 6.980469 C 14.246094 6.457031 13.675781 6.109375 13.046875 6.027344 Z M 13.046875 6.027344 "/>
</g>
</svg>
